# xmcd
#
# Track frame offsets:
#	150
#	11117
#	22601
#	43776
#	69805
#	92831
#	105604
#	121288
#	128877
#	154729
#	170618
#	188457
#	208091
#	223943
#	244458
#	267762
#	288159
#
# Disc length: 4197 seconds
#
# Revision: 0
# Processed by: cddbd v1.5PL3 Copyright (c) Steve Scherf et al.
# Submitted via: dBpowerAMP V4.0
#
DISCID=ec106311
DTITLE=聖經-舊約 - Disc 29
DYEAR=1900
DGENRE=
TTITLE0=29-01-歷代志上第13章
TTITLE1=29-02-歷代志上第14章
TTITLE2=29-03-歷代志上第15章
TTITLE3=29-04-歷代志上第16章
TTITLE4=29-05-歷代志上第17章
TTITLE5=29-06-歷代志上第18章
TTITLE6=29-07-歷代志上第19章
TTITLE7=29-08-歷代志上第20章
TTITLE8=29-09-歷代志上第21章
TTITLE9=29-10-歷代志上第22章
TTITLE10=29-11-歷代志上第23章
TTITLE11=29-12-歷代志上第24章
TTITLE12=29-13-歷代志上第25章
TTITLE13=29-14-歷代志上第26章
TTITLE14=29-15-歷代志上第27章
TTITLE15=29-16-歷代志上第28章
TTITLE16=29-17-歷代志上第29章
EXTD=
EXTT0=
EXTT1=
EXTT2=
EXTT3=
EXTT4=
EXTT5=
EXTT6=
EXTT7=
EXTT8=
EXTT9=
EXTT10=
EXTT11=
EXTT12=
EXTT13=
EXTT14=
EXTT15=
EXTT16=
PLAYORDER=
